<svg width="24" height="24" viewBox="0 0 24 24" fill="none" xmlns="http://www.w3.org/2000/svg">
<path d="M4 17L3.55279 16.7764C3.47529 16.9314 3.48357 17.1155 3.57467 17.2629C3.66578 17.4103 3.82671 17.5 4 17.5V17ZM20 17V17.5C20.1733 17.5 20.3342 17.4103 20.4253 17.2629C20.5164 17.1155 20.5247 16.9314 20.4472 16.7764L20 17ZM6 9H6.5C6.5 5.96243 8.96243 3.5 12 3.5V3V2.5C8.41015 2.5 5.5 5.41015 5.5 9H6ZM12 3V3.5C15.0376 3.5 17.5 5.96243 17.5 9H18H18.5C18.5 5.41015 15.5899 2.5 12 2.5V3ZM6 9H5.5C5.5 10.9244 5.01734 12.8668 4.52566 14.3419C4.28082 15.0764 4.03603 15.6883 3.85293 16.1155C3.76143 16.329 3.68549 16.4961 3.63285 16.6089C3.60653 16.6653 3.58605 16.7081 3.57238 16.7363C3.56555 16.7504 3.56042 16.7609 3.55711 16.7676C3.55546 16.771 3.55426 16.7734 3.55353 16.7749C3.55317 16.7756 3.55293 16.7761 3.5528 16.7764C3.55274 16.7765 3.55271 16.7766 3.5527 16.7766C3.5527 16.7766 3.55272 16.7765 3.55272 16.7765C3.55275 16.7765 3.55279 16.7764 4 17C4.44721 17.2236 4.44726 17.2235 4.44732 17.2234C4.44735 17.2233 4.44742 17.2232 4.44748 17.2231C4.4476 17.2228 4.44775 17.2225 4.44793 17.2222C4.44829 17.2215 4.44877 17.2205 4.44937 17.2193C4.45056 17.2169 4.45224 17.2135 4.45437 17.2092C4.45863 17.2005 4.46473 17.188 4.47254 17.1719C4.48817 17.1396 4.51066 17.0926 4.53903 17.0318C4.59576 16.9102 4.67607 16.7335 4.77207 16.5095C4.96397 16.0617 5.21918 15.4236 5.47434 14.6581C5.98266 13.1332 6.5 11.0756 6.5 9H6ZM4 17V17.5H20V17V16.5H4V17ZM20 17C20.4472 16.7764 20.4473 16.7765 20.4473 16.7765C20.4473 16.7765 20.4473 16.7766 20.4473 16.7766C20.4473 16.7766 20.4473 16.7765 20.4472 16.7764C20.4471 16.7761 20.4468 16.7756 20.4465 16.7749C20.4457 16.7734 20.4445 16.771 20.4429 16.7676C20.4396 16.7609 20.4345 16.7504 20.4276 16.7363C20.4139 16.7081 20.3935 16.6653 20.3672 16.6089C20.3145 16.4961 20.2386 16.329 20.1471 16.1155C19.964 15.6883 19.7192 15.0764 19.4743 14.3419C18.9827 12.8668 18.5 10.9244 18.5 9H18H17.5C17.5 11.0756 18.0173 13.1332 18.5257 14.6581C18.7808 15.4236 19.036 16.0617 19.2279 16.5095C19.3239 16.7335 19.4042 16.9102 19.461 17.0318C19.4893 17.0926 19.5118 17.1396 19.5275 17.1719C19.5353 17.188 19.5414 17.2005 19.5456 17.2092C19.5478 17.2135 19.5494 17.2169 19.5506 17.2193C19.5512 17.2205 19.5517 17.2215 19.5521 17.2222C19.5523 17.2225 19.5524 17.2228 19.5525 17.2231C19.5526 17.2232 19.5526 17.2233 19.5527 17.2234C19.5527 17.2235 19.5528 17.2236 20 17ZM15 18H14.5C14.5 19.3807 13.3807 20.5 12 20.5V21V21.5C13.933 21.5 15.5 19.933 15.5 18H15ZM12 21V20.5C10.6193 20.5 9.5 19.3807 9.5 18H9H8.5C8.5 19.933 10.067 21.5 12 21.5V21ZM9 18H9.5V17H9H8.5V18H9ZM15 18H15.5V17H15H14.5V18H15Z" fill="#F5F5F5"/>
</svg>
