<svg width="15" height="14" viewBox="0 0 15 14" fill="none" xmlns="http://www.w3.org/2000/svg">
<path d="M7.52461 0.00395968C7.70699 -0.0060078 7.91156 0.00395967 8.11859 0.0214028C9.2129 0.0986507 10.2628 0.347838 11.2635 0.811325C11.9068 1.11035 12.5032 1.48662 13.0405 1.95509C13.5606 2.4111 14.0042 2.9344 14.3468 3.54241C14.6425 4.0682 14.8422 4.62887 14.9383 5.22692C14.9925 5.56083 15.0122 5.89723 14.9925 6.23612C14.958 6.86657 14.8077 7.4696 14.544 8.04273C14.3123 8.54609 14.0116 9.0021 13.6468 9.41575C13.2007 9.92409 12.6881 10.3477 12.1187 10.704C11.3793 11.1675 10.5833 11.4915 9.74034 11.7033C9.42486 11.783 9.10692 11.8453 8.78405 11.8877C8.58441 11.9151 8.38477 11.935 8.18514 11.95C7.86966 11.9749 7.55418 11.9799 7.23871 11.9724C7.05386 11.9674 6.86901 11.955 6.68416 11.9375C6.52149 11.9226 6.35636 11.9051 6.19369 11.8802C6.15672 11.8752 6.12961 11.8927 6.10003 11.9126C5.70322 12.1842 5.30641 12.4533 4.91207 12.7249C4.32301 13.1286 3.7315 13.5298 3.14244 13.9335C3.12519 13.946 3.10794 13.9584 3.09068 13.9684C3.01181 14.0132 2.93295 14.0108 2.85901 13.9584C2.7826 13.9036 2.74317 13.8264 2.76535 13.7292C2.79739 13.5946 2.83436 13.4601 2.86886 13.3255C3.06357 12.5854 3.26075 11.8478 3.45545 11.1077C3.47271 11.0429 3.47271 11.0404 3.40862 11.0081C3.034 10.8137 2.68155 10.5894 2.34389 10.3352C2.06292 10.1234 1.7992 9.89169 1.5552 9.63752C1.09677 9.15908 0.717216 8.62333 0.443639 8.01532C0.248931 7.58422 0.115839 7.1332 0.0492932 6.66223C0.0172526 6.43298 0 6.20124 0 5.96949C0.00739398 5.31912 0.133092 4.69366 0.384487 4.09312C0.635882 3.49258 0.990793 2.95932 1.42457 2.47839C1.85835 1.99745 2.35621 1.59626 2.90337 1.25737C3.61319 0.816309 4.37477 0.502333 5.17825 0.293016C5.51837 0.205801 5.86096 0.136029 6.20601 0.0886832C6.40072 0.0612727 6.59543 0.0413377 6.7926 0.0263865C7.02675 0.00894341 7.26335 -0.00102406 7.52214 0.00146781L7.52461 0.00395968Z" fill="#3C1E1E"/>
</svg>
