<svg width="168" height="108" viewBox="0 0 168 108" fill="none" xmlns="http://www.w3.org/2000/svg">
<path d="M89.0299 14.3943C96.674 14.3943 103.502 16.0966 108 18.7634V3.98125C102.862 1.4861 96.4216 0 89.4275 0C72.6217 0 59 8.56998 59 19.1409C59 25.0476 63.2559 30.333 69.9457 33.8441C66.5369 31.7917 64.4902 29.1832 64.4902 26.338C64.4902 19.7415 75.4774 14.3943 89.0299 14.3943Z" fill="url(#paint0_linear_388_1302)"/>
<path d="M89.0299 50.3377C96.674 50.3377 103.502 48.6353 108 45.9686V60.7507C102.862 63.2458 96.4216 64.7319 89.4275 64.7319C72.6217 64.7319 59 56.1619 59 45.591C59 39.6844 63.2559 34.3989 69.9457 30.8879C66.5369 32.9403 64.4902 35.5487 64.4902 38.3939C64.4902 44.9904 75.4774 50.3377 89.0299 50.3377Z" fill="url(#paint1_linear_388_1302)"/>
<path d="M90.6924 26.1787C90.6302 26.1787 90.5714 26.1787 90.5092 26.1787C90.3882 26.1787 90.2637 26.1719 90.1427 26.1719C81.178 26.1719 73.1052 28.5503 67.4561 32.3462C73.1052 36.1422 81.178 38.5206 90.1427 38.5206C90.2257 38.5206 90.3087 38.5172 90.3916 38.5172C90.2914 38.5172 90.1946 38.5138 90.0943 38.5103C90.2914 38.5138 90.4919 38.5172 90.6924 38.5172C98.6511 38.5172 105.106 35.7543 105.106 32.3462C105.106 28.9382 98.6545 26.1753 90.6924 26.1753V26.1787ZM89.5308 38.4966C89.6207 38.4966 89.714 38.5035 89.8039 38.5069C89.714 38.5069 89.6207 38.5 89.5308 38.4966Z" fill="url(#paint2_linear_388_1302)"/>
<path d="M25.5217 86.35H41.5117V89.08H28.5217V93.55H41.2117V96.28H28.5217V100.33H42.1117V103.06H25.5217V86.35ZM52.689 103.06H48.699L43.299 89.68H46.509L50.709 100.06L54.879 89.68H58.089L52.689 103.06ZM73.0499 99.19C72.4199 101.65 69.5099 103.36 66.1199 103.36C61.5599 103.36 58.9799 100.3 58.9799 96.49C58.9799 92.71 61.5599 89.65 66.1199 89.65C70.0799 89.65 72.8399 91.99 73.1099 95.11V97.36H62.0399C62.2799 99.49 63.5099 100.69 66.1199 100.69C67.8299 100.69 69.4799 100.15 69.8699 99.19H73.0499ZM62.1299 94.99H70.1099C69.9599 93.25 68.3999 92.32 66.1199 92.32C63.7799 92.32 62.5499 93.28 62.1299 94.99ZM75.6486 89.65H78.6486V91.6C79.6686 90.46 81.1686 89.65 83.4486 89.65C88.5786 89.65 89.1486 93.19 89.1486 95.23V103.06H86.1486V95.23C86.1486 93.46 85.2186 92.62 83.4486 92.35C81.2586 92.02 78.8286 93.37 78.6486 95.41V103.06H75.6486V89.65ZM91.858 89.59H94.828V85.15H97.858V89.59H100.678V91.99H97.858V103.06H94.828V91.99H91.858V89.59ZM109.603 100.66C112.513 100.66 113.713 99.13 113.713 96.52C113.713 93.91 112.513 92.38 109.603 92.38C106.663 92.38 105.463 93.91 105.463 96.52C105.463 99.13 106.663 100.66 109.603 100.66ZM102.463 96.52C102.463 92.77 105.013 89.68 109.603 89.68C114.133 89.68 116.713 92.77 116.713 96.52C116.713 100.27 114.133 103.36 109.603 103.36C105.013 103.36 102.463 100.27 102.463 96.52ZM119.418 89.65H122.418V91.66C123.438 90.52 124.938 89.68 127.248 89.68C127.998 89.68 128.688 89.77 129.258 89.89L128.418 91.96C126.498 91.78 124.458 92.65 123.288 94.03C122.778 94.63 122.418 95.95 122.418 96.64V103.06H119.418V89.65ZM131.469 103.3C132.159 103.96 133.959 105.01 136.569 105.01C140.829 105.01 140.709 101.14 140.679 99.7V99.61C139.659 100.75 138.159 101.86 135.879 101.86C130.749 101.86 130.179 98.02 130.179 95.98V89.65H133.179V95.98C133.179 97.75 134.109 98.89 135.879 99.16C138.069 99.49 140.679 97.54 140.679 95.8V89.65H143.679V99.7C143.649 102.34 143.019 107.41 136.569 107.41C133.239 107.41 130.959 106.33 129.849 105.55L131.469 103.3Z" fill="#8371FD"/>
<defs>
<linearGradient id="paint0_linear_388_1302" x1="108.093" y1="18.0186" x2="61.82" y2="19.1148" gradientUnits="userSpaceOnUse">
<stop stop-color="#8371FD"/>
<stop offset="0.14962" stop-color="#8371FD"/>
<stop offset="0.401522" stop-color="#A295FF"/>
<stop offset="0.638979" stop-color="#7A66FF"/>
<stop offset="1" stop-color="#503DCD"/>
</linearGradient>
<linearGradient id="paint1_linear_388_1302" x1="107.575" y1="46.3324" x2="58.9952" y2="45.6058" gradientUnits="userSpaceOnUse">
<stop stop-color="#8371FD"/>
<stop offset="0.14962" stop-color="#8371FD"/>
<stop offset="0.334312" stop-color="#A295FF"/>
<stop offset="0.638979" stop-color="#7A66FF"/>
<stop offset="1" stop-color="#503DCD"/>
</linearGradient>
<linearGradient id="paint2_linear_388_1302" x1="65.5954" y1="32.3463" x2="99.5184" y2="32.3463" gradientUnits="userSpaceOnUse">
<stop stop-color="#503DCD"/>
<stop offset="0.559891" stop-color="#8371FD"/>
<stop offset="0.807786" stop-color="#A295FF"/>
<stop offset="1" stop-color="#8371FD"/>
</linearGradient>
</defs>
</svg>
