<svg width="68" height="90" viewBox="0 0 68 90" fill="none" xmlns="http://www.w3.org/2000/svg">
<path d="M41.6742 19.9757C52.2822 19.9757 61.758 22.3381 68 26.0389V5.525C60.8704 2.06235 51.932 0 42.2259 0C18.9035 0 0 11.893 0 26.5629C0 34.7599 5.90616 42.0948 15.19 46.9673C10.4593 44.119 7.61899 40.4992 7.61899 36.5507C7.61899 27.3964 22.8666 19.9757 41.6742 19.9757Z" fill="url(#paint0_linear_284_3568)"/>
<path d="M41.6742 69.8563C52.2822 69.8563 61.758 67.4939 68 63.7931V84.307C60.8704 87.7697 51.932 89.832 42.2259 89.832C18.9035 89.832 0 77.939 0 63.2692C0 55.0722 5.90616 47.7372 15.19 42.8648C10.4593 45.713 7.61899 49.3328 7.61899 53.2813C7.61899 62.4357 22.8666 69.8563 41.6742 69.8563Z" fill="url(#paint1_linear_284_3568)"/>
<path d="M43.9812 36.3298C43.8949 36.3298 43.8133 36.3298 43.727 36.3298C43.559 36.3298 43.3863 36.3203 43.2184 36.3203C30.7776 36.3203 19.5746 39.621 11.7349 44.8888C19.5746 50.1566 30.7776 53.4573 43.2184 53.4573C43.3335 53.4573 43.4487 53.4526 43.5638 53.4526C43.4247 53.4526 43.2904 53.4478 43.1512 53.4431C43.4247 53.4478 43.703 53.4526 43.9812 53.4526C55.0259 53.4526 63.9835 49.6184 63.9835 44.8888C63.9835 40.1592 55.0307 36.3251 43.9812 36.3251V36.3298ZM42.3692 53.424C42.4939 53.424 42.6235 53.4335 42.7482 53.4383C42.6235 53.4383 42.4939 53.4288 42.3692 53.424Z" fill="url(#paint2_linear_284_3568)"/>
<defs>
<linearGradient id="paint0_linear_284_3568" x1="68.1295" y1="25.0054" x2="3.91342" y2="26.5267" gradientUnits="userSpaceOnUse">
<stop stop-color="#8371FD"/>
<stop offset="0.14962" stop-color="#8371FD"/>
<stop offset="0.401522" stop-color="#A295FF"/>
<stop offset="0.638979" stop-color="#7A66FF"/>
<stop offset="1" stop-color="#503DCD"/>
</linearGradient>
<linearGradient id="paint1_linear_284_3568" x1="67.4099" y1="64.298" x2="-0.00665142" y2="63.2897" gradientUnits="userSpaceOnUse">
<stop stop-color="#8371FD"/>
<stop offset="0.14962" stop-color="#8371FD"/>
<stop offset="0.334312" stop-color="#A295FF"/>
<stop offset="0.638979" stop-color="#7A66FF"/>
<stop offset="1" stop-color="#503DCD"/>
</linearGradient>
<linearGradient id="paint2_linear_284_3568" x1="9.15268" y1="44.8889" x2="56.2296" y2="44.8889" gradientUnits="userSpaceOnUse">
<stop stop-color="#503DCD"/>
<stop offset="0.559891" stop-color="#8371FD"/>
<stop offset="0.807786" stop-color="#A295FF"/>
<stop offset="1" stop-color="#8371FD"/>
</linearGradient>
</defs>
</svg>
