<svg width="105" height="30" viewBox="0 0 105 30" fill="none" xmlns="http://www.w3.org/2000/svg">
<path d="M12.4185 7.67264C15.0706 7.67264 17.4395 8.26325 19 9.18845V4.05996C17.2176 3.1943 14.983 2.67871 12.5565 2.67871C6.72589 2.67871 2 5.65197 2 9.31943C2 11.3687 3.47654 13.2024 5.7975 14.4205C4.61483 13.7085 3.90475 12.8035 3.90475 11.8164C3.90475 9.5278 7.71664 7.67264 12.4185 7.67264Z" fill="url(#paint0_linear_7_1047)"/>
<path d="M12.4185 20.143C15.0706 20.143 17.4395 19.5524 19 18.6272V23.7557C17.2176 24.6214 14.983 25.137 12.5565 25.137C6.72589 25.137 2 22.1637 2 18.4962C2 16.447 3.47654 14.6133 5.7975 13.3951C4.61483 14.1072 3.90475 15.0122 3.90475 15.9993C3.90475 18.2879 7.71664 20.143 12.4185 20.143Z" fill="url(#paint1_linear_7_1047)"/>
<path d="M12.9954 11.7614C12.9738 11.7614 12.9535 11.7614 12.9319 11.7614C12.8899 11.7614 12.8467 11.759 12.8047 11.759C9.69451 11.759 6.89376 12.5842 4.93384 13.9012C6.89376 15.2181 9.69451 16.0433 12.8047 16.0433C12.8335 16.0433 12.8623 16.0421 12.8911 16.0421C12.8563 16.0421 12.8227 16.0409 12.7879 16.0397C12.8563 16.0409 12.9259 16.0421 12.9954 16.0421C15.7566 16.0421 17.996 15.0836 17.996 13.9012C17.996 12.7188 15.7578 11.7602 12.9954 11.7602V11.7614ZM12.5924 16.035C12.6236 16.035 12.656 16.0373 12.6872 16.0385C12.656 16.0385 12.6236 16.0361 12.5924 16.035Z" fill="url(#paint2_linear_7_1047)"/>
<path d="M25.43 23.6902L21 12.7202H23.63L27.07 21.2302L30.49 12.7202H33.12L28.69 23.6902H25.42H25.43Z" fill="#8371FD"/>
<path d="M39.7291 23.6902C35.9891 23.6902 33.8691 21.1802 33.8691 18.0602C33.8691 14.9402 35.9891 12.4502 39.7291 12.4502C42.9791 12.4502 45.2391 14.3702 45.4591 16.9302V18.7802H36.3791C36.5791 20.5302 37.5891 21.5102 39.7291 21.5102C41.1291 21.5102 42.4891 21.0702 42.8091 20.2802H45.4191C44.8991 22.3002 42.5191 23.7002 39.7391 23.7002L39.7291 23.6902ZM42.9991 16.8202C42.8791 15.3902 41.5991 14.6302 39.7291 14.6302C37.8591 14.6302 36.7991 15.4202 36.4591 16.8202H43.0091H42.9991Z" fill="#8371FD"/>
<path d="M50.0105 12.6899V14.2899C50.8505 13.3499 52.0805 12.6899 53.9505 12.6899C58.1605 12.6899 58.6305 15.5899 58.6305 17.2699V23.6899H56.1705V17.2699C56.1705 15.8199 55.4105 15.1299 53.9605 14.9099C52.1605 14.6399 50.1705 15.7499 50.0205 17.4199V23.6899H47.5605V12.6899H50.0205H50.0105Z" fill="#8371FD"/>
<path d="M62.4498 12.64V9H64.9398V12.64H67.2498V14.61H64.9398V23.69H62.4498V14.61H60.0098V12.64H62.4498Z" fill="#8371FD"/>
<path d="M74.0299 12.4702C77.7499 12.4702 79.8599 15.0002 79.8599 18.0802C79.8599 21.1602 77.7399 23.6902 74.0299 23.6902C70.3199 23.6902 68.1699 21.1602 68.1699 18.0802C68.1699 15.0002 70.2599 12.4702 74.0299 12.4702ZM77.3999 18.0802C77.3999 15.9402 76.4199 14.6802 74.0299 14.6802C71.6399 14.6802 70.6299 15.9302 70.6299 18.0802C70.6299 20.2302 71.6099 21.4802 74.0299 21.4802C76.4499 21.4802 77.3999 20.2202 77.3999 18.0802Z" fill="#8371FD"/>
<path d="M84.2608 12.6899V14.3399C85.1008 13.3999 86.3308 12.7199 88.2208 12.7199C88.8408 12.7199 89.4008 12.7899 89.8708 12.8899L89.1808 14.5899C87.6108 14.4399 85.9308 15.1599 84.9708 16.2899C84.5508 16.7799 84.2608 17.8599 84.2608 18.4299V23.6999H81.8008V12.6899H84.2608Z" fill="#8371FD"/>
<path d="M96.4302 25.3202C99.9202 25.3202 99.8302 22.1502 99.8002 20.9602V20.8902C98.9602 21.8302 97.7302 22.7402 95.8602 22.7402C91.6502 22.7402 91.1802 19.5902 91.1802 17.9202V12.7202H93.6402V17.9102C93.6402 19.3602 94.4002 20.3002 95.8502 20.5202C97.6502 20.7902 99.7902 19.1902 99.7902 17.7602V12.7202H102.25V20.9602C102.23 23.1302 101.71 27.2802 96.4202 27.2802C93.6902 27.2802 91.8202 26.3902 90.9102 25.7502L92.2402 23.9002C92.8102 24.4402 94.2802 25.3002 96.4202 25.3002L96.4302 25.3202Z" fill="#8371FD"/>
<defs>
<linearGradient id="paint0_linear_7_1047" x1="19.0324" y1="8.93006" x2="2.97835" y2="9.31039" gradientUnits="userSpaceOnUse">
<stop stop-color="#8371FD"/>
<stop offset="0.14962" stop-color="#8371FD"/>
<stop offset="0.401522" stop-color="#A295FF"/>
<stop offset="0.638979" stop-color="#7A66FF"/>
<stop offset="1" stop-color="#503DCD"/>
</linearGradient>
<linearGradient id="paint1_linear_7_1047" x1="18.8525" y1="18.7535" x2="1.99834" y2="18.5014" gradientUnits="userSpaceOnUse">
<stop stop-color="#8371FD"/>
<stop offset="0.14962" stop-color="#8371FD"/>
<stop offset="0.334312" stop-color="#A295FF"/>
<stop offset="0.638979" stop-color="#7A66FF"/>
<stop offset="1" stop-color="#503DCD"/>
</linearGradient>
<linearGradient id="paint2_linear_7_1047" x1="4.28829" y1="13.9012" x2="16.0575" y2="13.9012" gradientUnits="userSpaceOnUse">
<stop stop-color="#503DCD"/>
<stop offset="0.559891" stop-color="#8371FD"/>
<stop offset="0.807786" stop-color="#A295FF"/>
<stop offset="1" stop-color="#8371FD"/>
</linearGradient>
</defs>
</svg>
