<svg width="13" height="12" viewBox="0 0 13 12" fill="none" xmlns="http://www.w3.org/2000/svg">
<path d="M8.38504 6.165C8.38504 6.165 8.38504 6.105 8.38504 6.085C8.38504 4.305 8.38504 2.525 8.38504 0.745C8.38504 0.635 8.38504 0.625 8.50504 0.635C8.60504 0.635 8.71504 0.635 8.81504 0.635C9.84504 0.635 10.875 0.635 11.895 0.635C12.015 0.635 12.135 0.635 12.255 0.635C12.315 0.635 12.335 0.655 12.335 0.715C12.335 0.815 12.335 0.915 12.335 1.025C12.335 4.405 12.335 7.775 12.335 11.155C12.335 11.195 12.335 11.225 12.335 11.265C12.335 11.365 12.335 11.365 12.235 11.365C12.175 11.365 12.105 11.365 12.045 11.365C10.875 11.365 9.70504 11.365 8.53504 11.365C8.43504 11.365 8.37504 11.335 8.31504 11.255C7.74504 10.445 7.17504 9.645 6.60504 8.845C5.96504 7.955 5.33504 7.055 4.69504 6.165C4.67504 6.135 4.65504 6.105 4.63504 6.085C4.63504 6.085 4.61504 6.065 4.60504 6.065C4.59504 6.065 4.59504 6.085 4.59504 6.095C4.59504 6.125 4.59504 6.155 4.59504 6.185C4.59504 7.865 4.59504 9.555 4.59504 11.235C4.59504 11.255 4.59504 11.285 4.59504 11.305C4.59504 11.355 4.57504 11.375 4.52504 11.375C4.47504 11.375 4.41504 11.375 4.36504 11.375C3.17504 11.375 1.98504 11.375 0.795039 11.375C0.665039 11.375 0.665039 11.375 0.665039 11.235C0.665039 11.115 0.665039 11.005 0.665039 10.885C0.665039 7.625 0.665039 4.365 0.665039 1.105C0.665039 0.985 0.665039 0.865 0.665039 0.745C0.665039 0.645 0.685039 0.625 0.765039 0.625C1.08504 0.625 1.41504 0.625 1.73504 0.625C2.54504 0.625 3.35504 0.625 4.16504 0.625C4.28504 0.625 4.40504 0.625 4.52504 0.635C4.59504 0.635 4.62504 0.685 4.66504 0.735C4.81504 0.955 4.96504 1.185 5.12504 1.405C5.56504 2.055 6.00504 2.695 6.44504 3.345C6.89504 3.995 7.33504 4.655 7.78504 5.305C7.96504 5.565 8.14504 5.835 8.31504 6.095C8.33504 6.115 8.34504 6.145 8.38504 6.165Z" fill="white"/>
</svg>
