<svg width="24" height="24" viewBox="0 0 24 24" fill="none" xmlns="http://www.w3.org/2000/svg">
<path d="M18.9697 20.0303C19.2626 20.3232 19.7374 20.3232 20.0303 20.0303C20.3232 19.7374 20.3232 19.2626 20.0303 18.9697L19.5 19.5L18.9697 20.0303ZM16.3077 10.1538H15.5577C15.5577 13.1383 13.1383 15.5577 10.1538 15.5577V16.3077V17.0577C13.9667 17.0577 17.0577 13.9667 17.0577 10.1538H16.3077ZM10.1538 16.3077V15.5577C7.16938 15.5577 4.75 13.1383 4.75 10.1538H4H3.25C3.25 13.9667 6.34096 17.0577 10.1538 17.0577V16.3077ZM4 10.1538H4.75C4.75 7.16938 7.16938 4.75 10.1538 4.75V4V3.25C6.34096 3.25 3.25 6.34096 3.25 10.1538H4ZM10.1538 4V4.75C13.1383 4.75 15.5577 7.16938 15.5577 10.1538H16.3077H17.0577C17.0577 6.34096 13.9667 3.25 10.1538 3.25V4ZM19.5 19.5L20.0303 18.9697L15.0431 13.9824L14.5128 14.5128L13.9824 15.0431L18.9697 20.0303L19.5 19.5Z" fill="#323639"/>
<path d="M18.9697 20.0303C19.2626 20.3232 19.7374 20.3232 20.0303 20.0303C20.3232 19.7374 20.3232 19.2626 20.0303 18.9697L19.5 19.5L18.9697 20.0303ZM16.3077 10.1538H15.5577C15.5577 13.1383 13.1383 15.5577 10.1538 15.5577V16.3077V17.0577C13.9667 17.0577 17.0577 13.9667 17.0577 10.1538H16.3077ZM10.1538 16.3077V15.5577C7.16938 15.5577 4.75 13.1383 4.75 10.1538H4H3.25C3.25 13.9667 6.34096 17.0577 10.1538 17.0577V16.3077ZM4 10.1538H4.75C4.75 7.16938 7.16938 4.75 10.1538 4.75V4V3.25C6.34096 3.25 3.25 6.34096 3.25 10.1538H4ZM10.1538 4V4.75C13.1383 4.75 15.5577 7.16938 15.5577 10.1538H16.3077H17.0577C17.0577 6.34096 13.9667 3.25 10.1538 3.25V4ZM19.5 19.5L20.0303 18.9697L15.0431 13.9824L14.5128 14.5128L13.9824 15.0431L18.9697 20.0303L19.5 19.5Z" fill="black" fill-opacity="0.2"/>
<path d="M18.9697 20.0303C19.2626 20.3232 19.7374 20.3232 20.0303 20.0303C20.3232 19.7374 20.3232 19.2626 20.0303 18.9697L19.5 19.5L18.9697 20.0303ZM16.3077 10.1538H15.5577C15.5577 13.1383 13.1383 15.5577 10.1538 15.5577V16.3077V17.0577C13.9667 17.0577 17.0577 13.9667 17.0577 10.1538H16.3077ZM10.1538 16.3077V15.5577C7.16938 15.5577 4.75 13.1383 4.75 10.1538H4H3.25C3.25 13.9667 6.34096 17.0577 10.1538 17.0577V16.3077ZM4 10.1538H4.75C4.75 7.16938 7.16938 4.75 10.1538 4.75V4V3.25C6.34096 3.25 3.25 6.34096 3.25 10.1538H4ZM10.1538 4V4.75C13.1383 4.75 15.5577 7.16938 15.5577 10.1538H16.3077H17.0577C17.0577 6.34096 13.9667 3.25 10.1538 3.25V4ZM19.5 19.5L20.0303 18.9697L15.0431 13.9824L14.5128 14.5128L13.9824 15.0431L18.9697 20.0303L19.5 19.5Z" fill="black" fill-opacity="0.2"/>
<path d="M18.9697 20.0303C19.2626 20.3232 19.7374 20.3232 20.0303 20.0303C20.3232 19.7374 20.3232 19.2626 20.0303 18.9697L19.5 19.5L18.9697 20.0303ZM16.3077 10.1538H15.5577C15.5577 13.1383 13.1383 15.5577 10.1538 15.5577V16.3077V17.0577C13.9667 17.0577 17.0577 13.9667 17.0577 10.1538H16.3077ZM10.1538 16.3077V15.5577C7.16938 15.5577 4.75 13.1383 4.75 10.1538H4H3.25C3.25 13.9667 6.34096 17.0577 10.1538 17.0577V16.3077ZM4 10.1538H4.75C4.75 7.16938 7.16938 4.75 10.1538 4.75V4V3.25C6.34096 3.25 3.25 6.34096 3.25 10.1538H4ZM10.1538 4V4.75C13.1383 4.75 15.5577 7.16938 15.5577 10.1538H16.3077H17.0577C17.0577 6.34096 13.9667 3.25 10.1538 3.25V4ZM19.5 19.5L20.0303 18.9697L15.0431 13.9824L14.5128 14.5128L13.9824 15.0431L18.9697 20.0303L19.5 19.5Z" fill="black" fill-opacity="0.2"/>
<path d="M18.9697 20.0303C19.2626 20.3232 19.7374 20.3232 20.0303 20.0303C20.3232 19.7374 20.3232 19.2626 20.0303 18.9697L19.5 19.5L18.9697 20.0303ZM16.3077 10.1538H15.5577C15.5577 13.1383 13.1383 15.5577 10.1538 15.5577V16.3077V17.0577C13.9667 17.0577 17.0577 13.9667 17.0577 10.1538H16.3077ZM10.1538 16.3077V15.5577C7.16938 15.5577 4.75 13.1383 4.75 10.1538H4H3.25C3.25 13.9667 6.34096 17.0577 10.1538 17.0577V16.3077ZM4 10.1538H4.75C4.75 7.16938 7.16938 4.75 10.1538 4.75V4V3.25C6.34096 3.25 3.25 6.34096 3.25 10.1538H4ZM10.1538 4V4.75C13.1383 4.75 15.5577 7.16938 15.5577 10.1538H16.3077H17.0577C17.0577 6.34096 13.9667 3.25 10.1538 3.25V4ZM19.5 19.5L20.0303 18.9697L15.0431 13.9824L14.5128 14.5128L13.9824 15.0431L18.9697 20.0303L19.5 19.5Z" fill="black" fill-opacity="0.2"/>
<path d="M18.9697 20.0303C19.2626 20.3232 19.7374 20.3232 20.0303 20.0303C20.3232 19.7374 20.3232 19.2626 20.0303 18.9697L19.5 19.5L18.9697 20.0303ZM16.3077 10.1538H15.5577C15.5577 13.1383 13.1383 15.5577 10.1538 15.5577V16.3077V17.0577C13.9667 17.0577 17.0577 13.9667 17.0577 10.1538H16.3077ZM10.1538 16.3077V15.5577C7.16938 15.5577 4.75 13.1383 4.75 10.1538H4H3.25C3.25 13.9667 6.34096 17.0577 10.1538 17.0577V16.3077ZM4 10.1538H4.75C4.75 7.16938 7.16938 4.75 10.1538 4.75V4V3.25C6.34096 3.25 3.25 6.34096 3.25 10.1538H4ZM10.1538 4V4.75C13.1383 4.75 15.5577 7.16938 15.5577 10.1538H16.3077H17.0577C17.0577 6.34096 13.9667 3.25 10.1538 3.25V4ZM19.5 19.5L20.0303 18.9697L15.0431 13.9824L14.5128 14.5128L13.9824 15.0431L18.9697 20.0303L19.5 19.5Z" fill="black" fill-opacity="0.2"/>
<path d="M18.9697 20.0303C19.2626 20.3232 19.7374 20.3232 20.0303 20.0303C20.3232 19.7374 20.3232 19.2626 20.0303 18.9697L19.5 19.5L18.9697 20.0303ZM16.3077 10.1538H15.5577C15.5577 13.1383 13.1383 15.5577 10.1538 15.5577V16.3077V17.0577C13.9667 17.0577 17.0577 13.9667 17.0577 10.1538H16.3077ZM10.1538 16.3077V15.5577C7.16938 15.5577 4.75 13.1383 4.75 10.1538H4H3.25C3.25 13.9667 6.34096 17.0577 10.1538 17.0577V16.3077ZM4 10.1538H4.75C4.75 7.16938 7.16938 4.75 10.1538 4.75V4V3.25C6.34096 3.25 3.25 6.34096 3.25 10.1538H4ZM10.1538 4V4.75C13.1383 4.75 15.5577 7.16938 15.5577 10.1538H16.3077H17.0577C17.0577 6.34096 13.9667 3.25 10.1538 3.25V4ZM19.5 19.5L20.0303 18.9697L15.0431 13.9824L14.5128 14.5128L13.9824 15.0431L18.9697 20.0303L19.5 19.5Z" fill="black" fill-opacity="0.2"/>
<path d="M18.9697 20.0303C19.2626 20.3232 19.7374 20.3232 20.0303 20.0303C20.3232 19.7374 20.3232 19.2626 20.0303 18.9697L19.5 19.5L18.9697 20.0303ZM16.3077 10.1538H15.5577C15.5577 13.1383 13.1383 15.5577 10.1538 15.5577V16.3077V17.0577C13.9667 17.0577 17.0577 13.9667 17.0577 10.1538H16.3077ZM10.1538 16.3077V15.5577C7.16938 15.5577 4.75 13.1383 4.75 10.1538H4H3.25C3.25 13.9667 6.34096 17.0577 10.1538 17.0577V16.3077ZM4 10.1538H4.75C4.75 7.16938 7.16938 4.75 10.1538 4.75V4V3.25C6.34096 3.25 3.25 6.34096 3.25 10.1538H4ZM10.1538 4V4.75C13.1383 4.75 15.5577 7.16938 15.5577 10.1538H16.3077H17.0577C17.0577 6.34096 13.9667 3.25 10.1538 3.25V4ZM19.5 19.5L20.0303 18.9697L15.0431 13.9824L14.5128 14.5128L13.9824 15.0431L18.9697 20.0303L19.5 19.5Z" fill="black" fill-opacity="0.2"/>
<path d="M18.9697 20.0303C19.2626 20.3232 19.7374 20.3232 20.0303 20.0303C20.3232 19.7374 20.3232 19.2626 20.0303 18.9697L19.5 19.5L18.9697 20.0303ZM16.3077 10.1538H15.5577C15.5577 13.1383 13.1383 15.5577 10.1538 15.5577V16.3077V17.0577C13.9667 17.0577 17.0577 13.9667 17.0577 10.1538H16.3077ZM10.1538 16.3077V15.5577C7.16938 15.5577 4.75 13.1383 4.75 10.1538H4H3.25C3.25 13.9667 6.34096 17.0577 10.1538 17.0577V16.3077ZM4 10.1538H4.75C4.75 7.16938 7.16938 4.75 10.1538 4.75V4V3.25C6.34096 3.25 3.25 6.34096 3.25 10.1538H4ZM10.1538 4V4.75C13.1383 4.75 15.5577 7.16938 15.5577 10.1538H16.3077H17.0577C17.0577 6.34096 13.9667 3.25 10.1538 3.25V4ZM19.5 19.5L20.0303 18.9697L15.0431 13.9824L14.5128 14.5128L13.9824 15.0431L18.9697 20.0303L19.5 19.5Z" fill="black" fill-opacity="0.2"/>
</svg>
