<svg width="92" height="97" viewBox="0 0 92 97" fill="none" xmlns="http://www.w3.org/2000/svg">
<path d="M82.9497 47.2852C85.8557 47.2852 88.6288 47.8546 91.1636 48.8877L88.479 53.2178C86.7477 52.6136 84.887 52.2852 82.9497 52.2852C77.4283 52.2854 72.53 54.9527 69.4731 59.0693L64.9868 56.751C68.9113 51.0348 75.4921 47.2854 82.9497 47.2852Z" fill="#FF7CFB"/>
<path d="M48.4889 42.7873C46.5585 44.9591 44.29 46.6524 41.8342 47.8606L40.3806 42.9781C41.9823 42.0855 43.4647 40.9136 44.7517 39.4656C48.4193 35.3389 49.6791 29.9059 48.6334 24.8865L53.3473 23.0728C55.0123 29.8034 53.4429 37.2133 48.4889 42.7873Z" fill="#FF7CFB"/>
<rect x="67.354" y="35.4736" width="9.84844" height="5.77475" transform="rotate(-45.6976 67.354 35.4736)" fill="#BEB4FF"/>
<rect x="8.58643" y="44.0674" width="9.84844" height="5.77475" transform="rotate(-150.674 8.58643 44.0674)" fill="#BEB4FF"/>
<path d="M73.6523 75.4551L76.3919 80.0229L81.6429 80.9165L77.0751 83.6562L76.1815 88.9071L73.4418 84.3393L68.1909 83.4457L72.7587 80.706L73.6523 75.4551Z" fill="#7C69FF"/>
<path d="M25.6017 5.04039L28.4821 10.0195L33.928 11.0384L29.2241 13.9657L28.3488 19.651L25.4683 14.6718L20.0225 13.6529L24.7264 10.7257L25.6017 5.04039Z" fill="#7C69FF"/>
<circle cx="57.999" cy="45" r="3" fill="#FF90AE"/>
<circle cx="61.999" cy="3" r="3" fill="#FF90AE"/>
<circle cx="83.999" cy="66" r="3" fill="#FF90AE"/>
<g filter="url(#filter0_n_129_1560)">
<path d="M61.7964 65.3271L31.2739 79.2012L36.8306 91.9844L26.5601 96.4482L21.0776 83.8359L13.8901 87.1035L3.31299 71.5488L36.2876 31.1084L61.7964 65.3271Z" fill="url(#paint0_linear_129_1560)"/>
</g>
<defs>
<filter id="filter0_n_129_1560" x="3.31299" y="31.1084" width="58.4834" height="65.3398" filterUnits="userSpaceOnUse" color-interpolation-filters="sRGB">
<feFlood flood-opacity="0" result="BackgroundImageFix"/>
<feBlend mode="normal" in="SourceGraphic" in2="BackgroundImageFix" result="shape"/>
<feTurbulence type="fractalNoise" baseFrequency="5 5" stitchTiles="stitch" numOctaves="3" result="noise" seed="1776" />
<feColorMatrix in="noise" type="luminanceToAlpha" result="alphaNoise" />
<feComponentTransfer in="alphaNoise" result="coloredNoise1">
<feFuncA type="discrete" tableValues="1 1 1 1 1 1 1 1 1 1 1 1 1 1 1 1 1 1 1 1 1 1 1 1 1 1 1 1 1 1 1 1 1 1 1 1 1 1 1 1 1 1 1 1 1 1 1 1 1 1 1 0 0 0 0 0 0 0 0 0 0 0 0 0 0 0 0 0 0 0 0 0 0 0 0 0 0 0 0 0 0 0 0 0 0 0 0 0 0 0 0 0 0 0 0 0 0 0 0 0 "/>
</feComponentTransfer>
<feComposite operator="in" in2="shape" in="coloredNoise1" result="noise1Clipped" />
<feFlood flood-color="#735EFF" result="color1Flood" />
<feComposite operator="in" in2="noise1Clipped" in="color1Flood" result="color1" />
<feMerge result="effect1_noise_129_1560">
<feMergeNode in="shape" />
<feMergeNode in="color1" />
</feMerge>
</filter>
<linearGradient id="paint0_linear_129_1560" x1="32.5547" y1="31.1084" x2="32.5547" y2="96.4482" gradientUnits="userSpaceOnUse">
<stop stop-color="#CBC3FF"/>
<stop offset="1" stop-color="#311AD0"/>
</linearGradient>
</defs>
</svg>
