<svg width="52" height="52" viewBox="0 0 52 52" fill="none" xmlns="http://www.w3.org/2000/svg">
<rect width="52" height="52" rx="14" fill="#F2F0FF"/>
<g filter="url(#filter0_n_20_3984)">
<path d="M9 33.986C9.57944 33.3374 10.3407 32.996 11.1246 32.7001C12.1471 32.3132 13.2151 32.1425 14.2945 32.0629C15.1239 31.9946 15.9419 31.9604 16.7599 32.0742C17.1008 32.1197 17.4303 32.1425 17.7711 32.1311C18.146 32.6091 18.4642 33.1211 18.8959 33.565C19.4981 34.1794 20.0889 34.7939 20.8501 35.2036C20.9069 36.1481 21.0432 37.0926 20.9864 38.0371C20.8842 39.7099 20.6683 41.3713 19.8503 42.8848C19.6344 43.2831 19.3958 43.6586 19.0891 44H18.6119C18.2369 43.7383 18.0438 43.3286 17.8393 42.9417C17.2598 41.8493 16.4418 40.9958 15.3511 40.4268C14.1241 39.7782 13.181 38.8451 12.5562 37.6047C12.3403 37.1836 12.0449 36.8081 11.7268 36.444C10.9883 35.5678 9.96573 35.1239 9.01136 34.5891V33.9746L9 33.986Z" fill="url(#paint0_linear_20_3984)"/>
</g>
<path d="M20.8246 35.3158C20.0481 34.8866 19.4454 34.2604 18.8312 33.6457C18.3907 33.2049 18.0662 32.6714 17.6838 32.1843C17.2897 31.5233 16.9188 30.839 16.6639 30.1083C16.3857 29.3197 16.2003 28.4962 16.0844 27.6612C15.9917 26.9421 15.9685 26.223 16.0496 25.5156C16.1655 24.4601 16.4089 23.4163 16.8377 22.4189C17.7881 20.2501 19.2716 18.5568 21.323 17.3854C22.4356 16.7476 23.6409 16.33 24.9042 16.1329C27.4656 15.7269 29.8531 16.2604 32.0551 17.6058C32.1015 17.629 32.1594 17.6406 32.2174 17.6638C32.6926 18.0349 33.1909 18.3829 33.6429 18.7772C34.3035 19.3687 34.8714 20.0414 35.3582 20.7952C36.042 21.8274 36.494 22.9524 36.749 24.147C36.9692 25.1908 37.0503 26.2462 36.9692 27.3248C36.8069 29.4124 36.1 31.2681 34.8251 32.9034C33.2721 34.8982 31.2554 36.1508 28.7868 36.7307C27.7321 36.9743 26.689 37.0554 25.6344 36.9627C24.0118 36.8235 22.4819 36.3248 21.0912 35.4665C20.9984 35.4085 20.9173 35.3622 20.8246 35.3042V35.3158Z" fill="url(#paint1_linear_20_3984)"/>
<g filter="url(#filter1_n_20_3984)">
<path d="M35.2166 20.8538C34.7398 20.116 34.1836 19.4576 33.5365 18.8787C33.0938 18.4927 32.6057 18.1522 32.1403 17.7889C32.0722 16.8013 31.9586 15.8137 32.0154 14.8148C32.1176 12.8851 32.4808 11.0348 33.616 9.40014C33.9906 8.86662 34.4106 8.86662 34.7625 9.40014C35.0463 9.84285 35.262 10.3196 35.5685 10.7396C36.1588 11.5229 36.8626 12.1813 37.7594 12.6353C38.8038 13.1688 39.6552 13.9407 40.2 14.9737C40.9152 16.3359 41.9142 17.3803 43.2991 18.0386C44.1051 18.4132 44.3321 18.9922 43.3558 19.5711C42.3455 20.1841 41.2558 20.5587 40.1092 20.7857C38.94 21.0127 37.7594 21.0241 36.5675 20.9787C36.1247 20.9673 35.682 20.8198 35.228 20.8538H35.2166Z" fill="url(#paint2_linear_20_3984)"/>
</g>
<mask id="mask0_20_3984" style="mask-type:luminance" maskUnits="userSpaceOnUse" x="16" y="16" width="22" height="21">
<path d="M20.806 35.2987C20.0325 34.8712 19.4218 34.2504 18.8214 33.6295C18.3837 33.1817 18.058 32.6626 17.6815 32.1741C17.2845 31.5126 16.9181 30.8306 16.6535 30.0979C16.3685 29.304 16.1853 28.4898 16.0836 27.6552C15.992 26.9428 15.9716 26.2201 16.0428 25.5179C16.1548 24.4594 16.3991 23.4213 16.8367 22.4239C17.7832 20.2458 19.2692 18.5665 21.3251 17.3859C22.4344 16.7447 23.6354 16.3376 24.9076 16.134C27.4724 15.7269 29.854 16.2562 32.0626 17.5996C32.1134 17.6302 32.1643 17.6403 32.2254 17.6607C32.7038 18.0271 33.1923 18.3833 33.6503 18.7802C34.3118 19.3705 34.8818 20.0525 35.3703 20.7954C36.0522 21.8234 36.5102 22.9531 36.7545 24.1541C36.9682 25.2024 37.0598 26.2507 36.9784 27.3295C36.8155 29.4159 36.1133 31.2683 34.8411 32.9069C33.2839 34.9017 31.2687 36.1536 28.7955 36.7337C27.7472 36.978 26.6887 37.0492 25.6404 36.9678C24.0222 36.8355 22.4853 36.3266 21.091 35.4717C20.9994 35.4208 20.9078 35.3699 20.8264 35.319L20.806 35.2987Z" fill="white"/>
</mask>
<g mask="url(#mask0_20_3984)">
<g filter="url(#filter2_fn_20_3984)">
<path d="M14.1853 22.8627L10.7271 26.197L26.1976 42.2428L29.6559 38.9085L14.1853 22.8627Z" fill="url(#paint3_linear_20_3984)"/>
</g>
<g filter="url(#filter3_fn_20_3984)">
<path d="M20.4573 16.8158L16.999 20.1501L32.4696 36.196L35.9279 32.8617L20.4573 16.8158Z" fill="url(#paint4_linear_20_3984)"/>
</g>
<g filter="url(#filter4_fn_20_3984)">
<path d="M26.7732 10.7262L23.3149 14.0605L38.7855 30.1064L42.2438 26.7721L26.7732 10.7262Z" fill="url(#paint5_linear_20_3984)"/>
</g>
</g>
<path d="M21.5949 35.396C20.8553 34.9873 20.2813 34.3908 19.6963 33.8054C19.2769 33.3857 18.9678 32.8776 18.6036 32.4137C18.2283 31.7841 17.8751 31.1324 17.6322 30.4365C17.3673 29.6854 17.1907 28.9012 17.0804 28.1059C16.992 27.421 16.97 26.7362 17.0472 26.0624C17.1576 25.0573 17.3894 24.0632 17.7978 23.1133C18.7029 21.0477 20.1158 19.4351 22.0695 18.3195C23.1291 17.712 24.2771 17.3143 25.4802 17.1265C27.9196 16.7399 30.1934 17.248 32.2906 18.5293C32.3347 18.5514 32.3899 18.5625 32.4451 18.5846C32.8977 18.938 33.3723 19.2694 33.8028 19.6449C34.4319 20.2083 34.9728 20.8489 35.4364 21.5669C36.0876 22.5499 36.5181 23.6214 36.7609 24.7591C36.9707 25.7532 37.0479 26.7583 36.9707 27.7855C36.8161 29.7738 36.1428 31.541 34.9287 33.0985C33.4496 34.9983 31.529 36.1912 29.1779 36.7435C28.1735 36.9755 27.18 37.0528 26.1756 36.9644C24.6303 36.8319 23.1733 36.3569 21.8487 35.5396C21.7604 35.4843 21.6832 35.4401 21.5949 35.3849V35.396Z" fill="url(#paint6_linear_20_3984)"/>
<defs>
<filter id="filter0_n_20_3984" x="9" y="32" width="12" height="12" filterUnits="userSpaceOnUse" color-interpolation-filters="sRGB">
<feFlood flood-opacity="0" result="BackgroundImageFix"/>
<feBlend mode="normal" in="SourceGraphic" in2="BackgroundImageFix" result="shape"/>
<feTurbulence type="fractalNoise" baseFrequency="20 20" stitchTiles="stitch" numOctaves="3" result="noise" seed="9262" />
<feColorMatrix in="noise" type="luminanceToAlpha" result="alphaNoise" />
<feComponentTransfer in="alphaNoise" result="coloredNoise1">
<feFuncA type="discrete" tableValues="1 1 1 1 1 1 1 1 1 1 1 1 1 1 1 1 1 1 1 1 1 1 1 1 1 1 1 1 1 1 1 1 1 1 1 1 1 1 1 1 1 1 1 1 1 1 1 1 1 1 1 0 0 0 0 0 0 0 0 0 0 0 0 0 0 0 0 0 0 0 0 0 0 0 0 0 0 0 0 0 0 0 0 0 0 0 0 0 0 0 0 0 0 0 0 0 0 0 0 0 "/>
</feComponentTransfer>
<feComposite operator="in" in2="shape" in="coloredNoise1" result="noise1Clipped" />
<feFlood flood-color="rgba(122, 39, 0, 0.25)" result="color1Flood" />
<feComposite operator="in" in2="noise1Clipped" in="color1Flood" result="color1" />
<feMerge result="effect1_noise_20_3984">
<feMergeNode in="shape" />
<feMergeNode in="color1" />
</feMerge>
</filter>
<filter id="filter1_n_20_3984" x="32" y="9" width="12" height="12" filterUnits="userSpaceOnUse" color-interpolation-filters="sRGB">
<feFlood flood-opacity="0" result="BackgroundImageFix"/>
<feBlend mode="normal" in="SourceGraphic" in2="BackgroundImageFix" result="shape"/>
<feTurbulence type="fractalNoise" baseFrequency="20 20" stitchTiles="stitch" numOctaves="3" result="noise" seed="9262" />
<feColorMatrix in="noise" type="luminanceToAlpha" result="alphaNoise" />
<feComponentTransfer in="alphaNoise" result="coloredNoise1">
<feFuncA type="discrete" tableValues="1 1 1 1 1 1 1 1 1 1 1 1 1 1 1 1 1 1 1 1 1 1 1 1 1 1 1 1 1 1 1 1 1 1 1 1 1 1 1 1 1 1 1 1 1 1 1 1 1 1 1 0 0 0 0 0 0 0 0 0 0 0 0 0 0 0 0 0 0 0 0 0 0 0 0 0 0 0 0 0 0 0 0 0 0 0 0 0 0 0 0 0 0 0 0 0 0 0 0 0 "/>
</feComponentTransfer>
<feComposite operator="in" in2="shape" in="coloredNoise1" result="noise1Clipped" />
<feFlood flood-color="rgba(122, 39, 0, 0.25)" result="color1Flood" />
<feComposite operator="in" in2="noise1Clipped" in="color1Flood" result="color1" />
<feMerge result="effect1_noise_20_3984">
<feMergeNode in="shape" />
<feMergeNode in="color1" />
</feMerge>
</filter>
<filter id="filter2_fn_20_3984" x="9.72705" y="21.8628" width="20.9287" height="21.3801" filterUnits="userSpaceOnUse" color-interpolation-filters="sRGB">
<feFlood flood-opacity="0" result="BackgroundImageFix"/>
<feBlend mode="normal" in="SourceGraphic" in2="BackgroundImageFix" result="shape"/>
<feGaussianBlur stdDeviation="0.5" result="effect1_foregroundBlur_20_3984"/>
<feTurbulence type="fractalNoise" baseFrequency="11.111110687255859 11.111110687255859" stitchTiles="stitch" numOctaves="3" result="noise" seed="5660" />
<feColorMatrix in="noise" type="luminanceToAlpha" result="alphaNoise" />
<feComponentTransfer in="alphaNoise" result="coloredNoise1">
<feFuncA type="discrete" tableValues="0 0 0 0 1 1 1 1 1 1 1 1 1 1 1 1 1 1 1 1 1 1 1 1 1 1 1 1 1 1 1 1 1 1 1 1 1 1 1 1 1 1 1 1 1 0 0 0 0 0 0 0 0 0 0 0 0 0 0 0 0 0 0 0 0 0 0 0 0 0 0 0 0 0 0 0 0 0 0 0 0 0 0 0 0 0 0 0 0 0 0 0 0 0 0 0 0 0 0 0 "/>
</feComponentTransfer>
<feComposite operator="in" in2="effect1_foregroundBlur_20_3984" in="coloredNoise1" result="noise1Clipped" />
<feFlood flood-color="rgba(126, 23, 0, 0.25)" result="color1Flood" />
<feComposite operator="in" in2="noise1Clipped" in="color1Flood" result="color1" />
<feMerge result="effect2_noise_20_3984">
<feMergeNode in="effect1_foregroundBlur_20_3984" />
<feMergeNode in="color1" />
</feMerge>
</filter>
<filter id="filter3_fn_20_3984" x="15.999" y="15.8159" width="20.9287" height="21.3801" filterUnits="userSpaceOnUse" color-interpolation-filters="sRGB">
<feFlood flood-opacity="0" result="BackgroundImageFix"/>
<feBlend mode="normal" in="SourceGraphic" in2="BackgroundImageFix" result="shape"/>
<feGaussianBlur stdDeviation="0.5" result="effect1_foregroundBlur_20_3984"/>
<feTurbulence type="fractalNoise" baseFrequency="11.111110687255859 11.111110687255859" stitchTiles="stitch" numOctaves="3" result="noise" seed="5660" />
<feColorMatrix in="noise" type="luminanceToAlpha" result="alphaNoise" />
<feComponentTransfer in="alphaNoise" result="coloredNoise1">
<feFuncA type="discrete" tableValues="0 0 0 0 1 1 1 1 1 1 1 1 1 1 1 1 1 1 1 1 1 1 1 1 1 1 1 1 1 1 1 1 1 1 1 1 1 1 1 1 1 1 1 1 1 0 0 0 0 0 0 0 0 0 0 0 0 0 0 0 0 0 0 0 0 0 0 0 0 0 0 0 0 0 0 0 0 0 0 0 0 0 0 0 0 0 0 0 0 0 0 0 0 0 0 0 0 0 0 0 "/>
</feComponentTransfer>
<feComposite operator="in" in2="effect1_foregroundBlur_20_3984" in="coloredNoise1" result="noise1Clipped" />
<feFlood flood-color="rgba(126, 23, 0, 0.25)" result="color1Flood" />
<feComposite operator="in" in2="noise1Clipped" in="color1Flood" result="color1" />
<feMerge result="effect2_noise_20_3984">
<feMergeNode in="effect1_foregroundBlur_20_3984" />
<feMergeNode in="color1" />
</feMerge>
</filter>
<filter id="filter4_fn_20_3984" x="22.3149" y="9.72632" width="20.9287" height="21.3801" filterUnits="userSpaceOnUse" color-interpolation-filters="sRGB">
<feFlood flood-opacity="0" result="BackgroundImageFix"/>
<feBlend mode="normal" in="SourceGraphic" in2="BackgroundImageFix" result="shape"/>
<feGaussianBlur stdDeviation="0.5" result="effect1_foregroundBlur_20_3984"/>
<feTurbulence type="fractalNoise" baseFrequency="11.111110687255859 11.111110687255859" stitchTiles="stitch" numOctaves="3" result="noise" seed="5660" />
<feColorMatrix in="noise" type="luminanceToAlpha" result="alphaNoise" />
<feComponentTransfer in="alphaNoise" result="coloredNoise1">
<feFuncA type="discrete" tableValues="0 0 0 0 1 1 1 1 1 1 1 1 1 1 1 1 1 1 1 1 1 1 1 1 1 1 1 1 1 1 1 1 1 1 1 1 1 1 1 1 1 1 1 1 1 0 0 0 0 0 0 0 0 0 0 0 0 0 0 0 0 0 0 0 0 0 0 0 0 0 0 0 0 0 0 0 0 0 0 0 0 0 0 0 0 0 0 0 0 0 0 0 0 0 0 0 0 0 0 0 "/>
</feComponentTransfer>
<feComposite operator="in" in2="effect1_foregroundBlur_20_3984" in="coloredNoise1" result="noise1Clipped" />
<feFlood flood-color="rgba(126, 23, 0, 0.25)" result="color1Flood" />
<feComposite operator="in" in2="noise1Clipped" in="color1Flood" result="color1" />
<feMerge result="effect2_noise_20_3984">
<feMergeNode in="effect1_foregroundBlur_20_3984" />
<feMergeNode in="color1" />
</feMerge>
</filter>
<linearGradient id="paint0_linear_20_3984" x1="15" y1="32" x2="15" y2="44" gradientUnits="userSpaceOnUse">
<stop stop-color="#FFD39E"/>
<stop offset="1" stop-color="#F65E3A"/>
</linearGradient>
<linearGradient id="paint1_linear_20_3984" x1="16" y1="13.5" x2="32.5" y2="39" gradientUnits="userSpaceOnUse">
<stop offset="0.436077" stop-color="#FF9494"/>
<stop offset="0.919754" stop-color="#FF5843"/>
</linearGradient>
<linearGradient id="paint2_linear_20_3984" x1="38" y1="9" x2="38" y2="21" gradientUnits="userSpaceOnUse">
<stop stop-color="#FFD39E"/>
<stop offset="1" stop-color="#F65E3A"/>
</linearGradient>
<linearGradient id="paint3_linear_20_3984" x1="12.4562" y1="24.5299" x2="27.9268" y2="40.5757" gradientUnits="userSpaceOnUse">
<stop stop-color="#FF7D7C"/>
<stop offset="1" stop-color="#BA2C2C"/>
</linearGradient>
<linearGradient id="paint4_linear_20_3984" x1="18.7282" y1="18.483" x2="34.1988" y2="34.5288" gradientUnits="userSpaceOnUse">
<stop stop-color="#FF7D7C"/>
<stop offset="1" stop-color="#BA2C2C"/>
</linearGradient>
<linearGradient id="paint5_linear_20_3984" x1="25.0441" y1="12.3934" x2="40.5147" y2="28.4392" gradientUnits="userSpaceOnUse">
<stop stop-color="#FF7D7C"/>
<stop offset="1" stop-color="#BA2C2C"/>
</linearGradient>
<linearGradient id="paint6_linear_20_3984" x1="23.1905" y1="19.8571" x2="38.1765" y2="31.7059" gradientUnits="userSpaceOnUse">
<stop offset="0.515648" stop-color="#C02924" stop-opacity="0"/>
<stop offset="1" stop-color="#84110C"/>
</linearGradient>
</defs>
</svg>
